<svg width="1438" height="5039" viewBox="0 0 1438 5039" fill="none" xmlns="http://www.w3.org/2000/svg">
<path d="M10.36 10.6798H1427.32V2234.52C1427.32 2625.8 1110.12 2943 718.84 2943C327.557 2943 10.36 2625.8 10.36 2234.52V10.6798Z" fill="white" stroke="black" stroke-width="19.68"/>
<path d="M160.318 4935.6L728.68 4675.82L1297.04 4935.6H160.318Z" fill="white" stroke="black" stroke-width="19.68"/>
<path d="M679.48 2943H777.88V4684.68C777.88 4711.85 755.852 4733.88 728.68 4733.88C701.508 4733.88 679.48 4711.85 679.48 4684.68V2943Z" fill="white" stroke="black" stroke-width="19.68"/>
<path d="M10.36 443.64H1427.32V2234.52C1427.32 2625.8 1110.12 2943 718.84 2943C327.557 2943 10.36 2625.8 10.36 2234.52V443.64Z" fill="#F7CE40" fill-opacity="0.6" stroke="black" stroke-width="19.68"/>
<circle cx="679.48" cy="1368.6" r="49.2" fill="white"/>
<circle cx="679.48" cy="2628.12" r="49.2" fill="white"/>
<circle cx="787.72" cy="1772.04" r="78.72" fill="white"/>
<circle cx="531.88" cy="2205" r="78.72" fill="white"/>
<circle cx="453.16" cy="1024.2" r="78.72" fill="white"/>
<circle cx="777.88" cy="660.12" r="49.2" fill="white"/>
<circle cx="797.56" cy="2116.44" r="49.2" fill="white"/>
</svg>
